<svg width="1171" height="1171" viewBox="0 0 1171 1171" fill="none" xmlns="http://www.w3.org/2000/svg">
<circle cx="585.5" cy="585.5" r="585.5" fill="#E6E6E6"/>
<path fill-rule="evenodd" clip-rule="evenodd" d="M367.5 923C690.863 923 953 660.863 953 337.5C953 249.3 933.498 165.654 898.569 90.6407C808.023 33.2372 700.643 0 585.5 0C262.137 0 0 262.137 0 585.5C0 673.7 19.5029 757.346 54.4307 832.359C144.977 889.763 252.357 923 367.5 923Z" fill="#F4F4F4"/>
<circle cx="408" cy="247" r="120" fill="#D6D6D6"/>
<circle cx="674.5" cy="619.5" r="79.5" fill="#D6D6D6"/>
<circle cx="1017" cy="746" r="52" fill="#C5C5C5"/>
<circle cx="274.5" cy="801.5" r="55.5" fill="#D6D6D6"/>
<circle cx="1029.5" cy="452.5" r="64.5" fill="#CCCCCC"/>
<circle cx="231.5" cy="489.5" r="27.5" fill="#D6D6D6"/>
<circle cx="585.5" cy="816.5" r="27.5" fill="#D6D6D6"/>
<circle cx="925.5" cy="922.5" r="27.5" fill="#C5C5C5"/>
<circle cx="636" cy="1076" r="41" fill="#C5C5C5"/>
</svg>
