<svg width="3000" height="3004" viewBox="0 0 3000 3004" fill="none" xmlns="http://www.w3.org/2000/svg">
<circle cx="1499.5" cy="1501.5" r="717.5" transform="rotate(-90 1499.5 1501.5)" fill="#F4A240"/>
<path fill-rule="evenodd" clip-rule="evenodd" d="M2020.4 1994.93C1889.63 2132.93 1704.62 2219 1499.5 2219C1103.24 2219 782 1897.76 782 1501.5C782 1377.88 813.262 1261.56 868.312 1160.02C999.076 1022.03 1184.09 935.956 1389.21 935.956C1785.47 935.956 2106.71 1257.19 2106.71 1653.46C2106.71 1777.07 2075.45 1893.39 2020.4 1994.93Z" fill="#F8C442"/>
<ellipse cx="1081.62" cy="1637.52" rx="59.4342" ry="59.4342" transform="rotate(-90 1081.62 1637.52)" fill="#F4A240"/>
<ellipse cx="1743.98" cy="1982.49" rx="58.8215" ry="58.8215" transform="rotate(-90 1743.98 1982.49)" fill="#F4A240"/>
<ellipse cx="1484.18" cy="1160.21" rx="57.5961" ry="57.5961" transform="rotate(-90 1484.18 1160.21)" fill="#F4A240"/>
<rect x="1458" y="2541" width="85" height="463" rx="42.5" fill="#F4A240"/>
<rect x="1984" y="2426.34" width="85" height="463" rx="42.5" transform="rotate(-29.8734 1984 2426.34)" fill="#F4A240"/>
<rect x="2381" y="2060.42" width="85" height="463" rx="42.5" transform="rotate(-59.7469 2381 2060.42)" fill="#F4A240"/>
<rect x="2536" y="1546" width="85" height="463" rx="42.5" transform="rotate(-89.6203 2536 1546)" fill="#F4A240"/>
<rect x="2417.85" y="1022.93" width="85" height="463" rx="42.5" transform="rotate(-119.494 2417.85 1022.93)" fill="#F4A240"/>
<rect x="2054.14" y="624.699" width="85" height="463" rx="42.5" transform="rotate(-149.367 2054.14 624.699)" fill="#F4A240"/>
<rect width="85" height="463" rx="42.5" transform="matrix(-0.867128 -0.498086 -0.498086 0.867128 1015.55 2426.34)" fill="#F4A240"/>
<rect width="85" height="463" rx="42.5" transform="matrix(-0.503821 -0.863808 -0.863808 0.503821 618.553 2060.42)" fill="#F4A240"/>
<rect width="85" height="463" rx="42.5" transform="matrix(-0.00662652 -0.999978 -0.999978 0.00662652 463.553 1546)" fill="#F4A240"/>
<rect width="85" height="463" rx="42.5" transform="matrix(0.492329 -0.870409 -0.870409 -0.492329 581.706 1022.93)" fill="#F4A240"/>
<rect width="85" height="463" rx="42.5" transform="matrix(0.860451 -0.509534 -0.509534 -0.860451 945.415 624.699)" fill="#F4A240"/>
<rect x="1538.99" y="464.086" width="85" height="463" rx="42.5" transform="rotate(-179.241 1538.99 464.086)" fill="#F4A240"/>
</svg>
